<?xml version="1.0" encoding="UTF-8"?>
<svg id="Layer_1" data-name="Layer 1" xmlns="http://www.w3.org/2000/svg" viewBox="0 0 289.15 322.94">
  <path d="M242.81,322.94c-.27-6.99-.41-14.92-.41-23.75,0-7.63-.09-16.7-.22-27.21-.14-10.51-.21-22.17-.21-34.97l-.43-.45c-2.52,10.04-6.31,20.11-11.36,30.17-5.06,10.04-11.65,19.12-19.79,27.19-8.16,8.07-18.05,14.71-29.7,19.88-11.65,5.19-25.62,7.78-41.9,7.78-23.31,0-43.67-4.58-61.08-13.73-17.41-9.13-31.94-21.09-43.58-35.88-11.65-14.77-20.29-31.7-25.91-50.74C2.59,202.2-.13,182.76,0,162.95c.14-19.81,3.22-39.23,9.27-58.3,6.03-19.03,14.88-35.96,26.53-50.74,11.65-14.77,26.19-26.73,43.6-35.88,17.39-9.13,37.75-13.71,61.06-13.71,6.05,0,26.89-1.53,53.49,3.2,13.71,2.44,31.41,5.72,52,16.27,9.85,5.05,17.54,10.31,22.87,14.33-17.5,16.04-35,32.08-52.5,48.12,1.73-1.19,17.74-12.56,17.05-29.77-.4-9.87-6.5-17.36-9.09-20.6-4.37-5.47-9.3-9.02-14.63-12.08-27.09-15.56-58.18-15.01-62.45-14.89-19.75.56-31.54,5.5-35.3,7.18-3.58,1.6-7.05,3.48-10.39,5.62-13.33,8.54-24.58,19.88-33.69,34.06-9.13,14.17-16.07,30.25-20.86,48.23-4.76,17.97-7.3,36.33-7.57,55.08-.29,18.75,1.82,37.11,6.32,55.08,4.47,17.99,11.5,34.06,21.04,48.23,9.55,14.17,21.63,25.54,36.23,34.06,14.6,8.54,32.01,12.8,52.22,12.8,17.41,0,31.74-4.58,42.96-13.71,11.23-9.15,20.07-20.28,26.53-33.37,6.46-13.1,10.88-26.58,13.28-40.46,2.38-13.86,3.56-25.67,3.56-35.44l-1.68-50.28c-16.85.3-32.99.45-48.43.45-13.49.32-27.09.47-40.86.47h-34.12v-10.97h157.1v156.81c0,4.26,1.61,7.61,4.85,10.04,3.22,2.46,6.8,2.9,10.75,1.38l-46.34,28.79Z"/>
  <path d="M220.02,234.57l2.64,3.49c-5.28,10.34-11.72,19.66-19.31,27.93-6.52,6.99-14.72,13.39-24.59,19.21-9.88,5.81-21.43,8.73-34.66,8.73s-24.59-3.57-35.7-10.67c-11.12-7.12-20.86-16.75-29.23-28.91-8.37-12.16-14.95-26.38-19.71-42.67-4.76-16.31-7.14-33.75-7.14-52.38s2.38-36.15,7.14-52.57c4.76-16.42,11.33-30.72,19.71-42.88,8.37-12.16,18.11-21.79,29.23-28.91,9.29-5.95,16.96-7.95,18.68-8.41,5.69-1.53,10.09-1.83,17.02-2.26,11.87-.75,17.84-.51,22.89-.01,6.99.68,26.88,2.63,44.86,17.16,11.4,9.21,17.88,20.12,21.51,28.18-5.68,5.55-11.37,11.1-17.05,16.65-.7-5.93-2.69-15.99-9.29-26.28-10.04-15.66-24.41-21.99-31.72-25.21-1.47-.65-16.16-7-31.21-6.6-10.81.29-17.72,3.16-19.48,3.93-1.71.74-5.96,2.61-11.19,6.75-9,7.12-16.53,16.5-22.62,28.13-6.08,11.64-10.67,24.9-13.76,39.77-3.08,14.87-4.59,30.01-4.49,45.39.09,15.39,1.85,30.53,5.28,45.4,3.44,14.87,8.69,28.12,15.74,39.77,7.05,11.64,15.96,21.01,26.72,28.12,10.75,7.12,23.54,10.67,38.35,10.67,10.05,0,18.91-2.13,26.58-6.39,7.67-4.28,14.06-8.98,19.18-14.16,5.99-6.2,11.19-13.2,15.61-20.95Z"/>
  <path d="M223.33,133.91c-2.17.52-4.11,1.17-5.84,1.98l-.98.6c-3.45,1.92-5.29,4.11-5.48,6.59l.03,4.45.58,73.63c.02,2.99-.42,5.79-1.34,8.4-.75,2.14-1.98,4.59-5.45,8.66-4.09,4.79-8.4,8.44-12.3,11.2-2.8,1.98-7.83,5.22-14.67,7.91-5.01,1.96-8.92,2.81-12.22,3.51-5.18,1.1-10.17,2.11-16.76,1.43-1.98-.21-3.45-.5-4.24-.66-16.38-3.31-27.55-13.69-27.55-13.69-7.17-6.66-10.88-13.77-13.49-18.78-2.67-5.11-4.39-9.71-5.5-13.13.86-1.66,1.72-3.33,2.58-4.99,1.39,4.49,10.4,32.21,34.6,41.41,4.36,1.66,15.08,5.74,27.3,1.39,1.72-.61,11.18-4.23,17.96-13.68,4.28-5.98,6.4-12.77,6.34-20.4l-.6-76.3c-.02-2.57-1.77-4.78-5.26-6.63l-1.3-.58c-1.74-.78-3.71-1.4-5.88-1.87-2.16-.48-4.44-.75-6.84-.83v-.3s6.51-.06,6.51-.06l50.12-.46,6.83-.06v.3c-2.61.13-4.99.44-7.15.96Z"/>
</svg>