<?xml version="1.0" encoding="UTF-8"?>
<svg id="Layer_1" xmlns="http://www.w3.org/2000/svg" version="1.1" viewBox="0 0 160 160">
  <!-- Generator: Adobe Illustrator 30.3.0, SVG Export Plug-In . SVG Version: 2.1.3 Build 182)  -->
  <defs>
    <style>
      .st0 {
        fill: #f5f5f5;
      }
    </style>
  </defs>
  <path class="st0" d="M128.44,158.62c-.14-3.45-.2-7.36-.2-11.71,0-3.76-.04-8.24-.11-13.42-.07-5.18-.1-10.93-.1-17.24l-.21-.22c-1.24,4.95-3.11,9.91-5.6,14.88-2.49,4.95-5.75,9.43-9.76,13.41-4.02,3.98-8.9,7.25-14.64,9.8-5.75,2.56-12.63,3.83-20.66,3.83-11.49,0-21.53-2.26-30.12-6.77-8.59-4.5-15.75-10.4-21.49-17.69-5.75-7.28-10-15.63-12.78-25.02-2.77-9.38-4.12-18.97-4.05-28.74.07-9.77,1.59-19.34,4.57-28.74,2.97-9.38,7.33-17.73,13.08-25.02,5.75-7.28,12.91-13.18,21.5-17.69,8.58-4.5,18.62-6.76,30.11-6.76,2.98,0,13.26-.75,26.37,1.58,6.76,1.2,15.49,2.82,25.64,8.02,4.86,2.49,8.65,5.08,11.28,7.07-8.63,7.91-16.78,15.35-25.41,23.26.86-.59,6.19-6.86,5.85-15.34-.2-4.87-1.13-7.43-2.41-9.03-2.16-2.7-4.59-4.45-7.22-5.96-13.36-7.67-28.69-7.4-30.79-7.34-9.74.28-15.55,2.71-17.41,3.54-1.77.79-3.47,1.71-5.12,2.77-6.57,4.21-12.12,9.8-16.61,16.79-4.5,6.99-7.93,14.91-10.28,23.78-2.35,8.86-3.6,17.91-3.73,27.16-.14,9.25.9,18.3,3.12,27.16,2.21,8.87,5.67,16.79,10.38,23.78,4.71,6.99,10.66,12.59,17.86,16.79,7.2,4.21,15.78,6.31,25.75,6.31,8.59,0,15.65-2.26,21.18-6.76,5.53-4.51,9.9-10,13.08-16.45,3.19-6.46,5.37-13.11,6.55-19.95,1.17-6.83,1.76-12.66,1.76-17.47l-.83-24.79c-8.31.15-16.27.22-23.88.22-6.65.16-13.36.23-20.15.23h-16.82v-5.41h77.46v77.32c0,2.1.79,3.75,2.39,4.95,1.59,1.21,3.35,1.43,5.3.68l-22.85,14.2Z"/>
  <path class="st0" d="M117.2,115.04l1.3,1.72c-2.61,5.1-5.78,9.69-9.52,13.77-3.22,3.45-7.26,6.6-12.13,9.47-4.87,2.86-10.57,4.3-17.09,4.3s-12.13-1.76-17.6-5.26c-5.48-3.51-10.28-8.26-14.41-14.25-4.13-5.99-7.37-13.01-9.72-21.04-2.35-8.04-3.52-16.64-3.52-25.83s1.17-17.83,3.52-25.92c2.35-8.1,5.59-15.15,9.72-21.14,4.13-5.99,8.93-10.74,14.41-14.25,4.58-2.93,8.36-3.92,9.21-4.15,2.81-.75,4.98-.9,8.39-1.12,5.86-.37,8.8-.25,11.29,0,3.45.34,13.25,1.3,22.12,8.46,5.62,4.54,8.81,9.92,10.61,13.89-2.8,2.74-5.6,5.47-8.41,8.21-.34-2.92-1.33-7.88-4.58-12.96-4.95-7.72-12.04-10.84-15.64-12.43-.72-.32-7.97-3.45-15.39-3.25-5.33.14-8.74,1.56-9.61,1.94-.84.37-2.94,1.28-5.52,3.33-4.44,3.51-8.15,8.13-11.16,13.87-3,5.74-5.26,12.28-6.78,19.61-1.52,7.33-2.26,14.8-2.21,22.38.04,7.59.91,15.06,2.61,22.39,1.7,7.33,4.28,13.86,7.76,19.61,3.48,5.74,7.87,10.36,13.18,13.86,5.3,3.51,11.61,5.26,18.91,5.26,4.96,0,9.32-1.05,13.11-3.15,3.78-2.11,6.93-4.43,9.46-6.98,2.96-3.06,5.52-6.51,7.7-10.33Z"/>
  <path class="st0" d="M118.83,65.41c-1.07.25-2.03.58-2.88.98l-.48.3c-1.7.94-2.61,2.03-2.7,3.25l.02,2.19.29,36.3c.01,1.48-.21,2.86-.66,4.14-.37,1.06-.98,2.26-2.69,4.27-2.02,2.36-4.14,4.16-6.06,5.52-1.38.98-3.86,2.58-7.23,3.9-2.47.97-4.4,1.39-6.03,1.73-2.56.54-5.02,1.04-8.27.7-.98-.1-1.7-.25-2.09-.32-8.07-1.63-13.58-6.75-13.58-6.75-3.54-3.29-5.36-6.79-6.65-9.26-1.31-2.52-2.17-4.79-2.71-6.47.42-.82.85-1.64,1.27-2.46.69,2.21,5.13,15.88,17.06,20.42,2.15.82,7.44,2.83,13.46.69.85-.3,5.51-2.08,8.85-6.74,2.11-2.95,3.16-6.3,3.13-10.06l-.3-37.62c0-1.27-.87-2.36-2.59-3.27l-.64-.29c-.86-.38-1.83-.69-2.9-.92-1.07-.23-2.19-.37-3.37-.41v-.15s3.21-.03,3.21-.03l24.71-.23,3.37-.03v.15c-1.28.06-2.46.22-3.53.47Z"/>
  <path class="st0" d="M100.2,30.93"/>
  <path class="st0" d="M143.66,38.32"/>
  <path class="st0" d="M80,27.23"/>
  <path class="st0" d="M75.43,27.23"/>
  <path class="st0" d="M147.94,32.8"/>
  <path class="st0" d="M143.66-.62"/>
</svg>